# xmcd
#
# Track frame offsets:
#	150
#	32878
#	72118
#	113575
#	154427
#	170125
#	190234
#	235077
#	261503
#	290347
#
# Disc length: 4370 seconds
#
# Revision: 1
# Processed by: cddbd v1.5.2PL0 Copyright (c) Steve Scherf et al.
# Submitted via: audiograbber 1.83.01
#
DISCID=9111100a
DTITLE=Grateful Dead - 78-07-03A St Paul Civic Centre Arena, St Paul MN
DYEAR=1900
DGENRE=
TTITLE0=Minglewood Blues
TTITLE1=Loser
TTITLE2=Looks Like Rain
TTITLE3=Ramble On Rose
TTITLE4=Mexicali Blues
TTITLE5=Mama Tried
TTITLE6=Peggy-O
TTITLE7=Cassidy
TTITLE8=Deal
TTITLE9=The Music Never Stopped
EXTD=
EXTT0=
EXTT1=
EXTT2=
EXTT3=
EXTT4=
EXTT5=
EXTT6=
EXTT7=
EXTT8=
EXTT9=
PLAYORDER=
